<svg width="180" height="180" viewBox="0 0 180 180" fill="none" xmlns="http://www.w3.org/2000/svg">
<rect width="180" height="180" fill="white"/>
<path d="M21.3306 96.1562H29.7681L32.8149 99.9844L37.9712 105.844L44.6899 113.969H35.0806L30.3149 108.422L27.1118 103.812L21.3306 96.1562ZM44.6118 91C44.6118 95.4531 43.7459 99.2096 42.0142 102.27C40.2824 105.316 37.9452 107.628 35.0024 109.203C32.0597 110.766 28.7785 111.547 25.1587 111.547C21.5129 111.547 18.2186 110.759 15.2759 109.184C12.3462 107.595 10.0155 105.277 8.28369 102.23C6.56494 99.1706 5.70557 95.4271 5.70557 91C5.70557 86.5469 6.56494 82.7969 8.28369 79.75C10.0155 76.6901 12.3462 74.3789 15.2759 72.8164C18.2186 71.2409 21.5129 70.4531 25.1587 70.4531C28.7785 70.4531 32.0597 71.2409 35.0024 72.8164C37.9452 74.3789 40.2824 76.6901 42.0142 79.75C43.7459 82.7969 44.6118 86.5469 44.6118 91ZM33.4399 91C33.4399 88.6042 33.1209 86.5859 32.4829 84.9453C31.8579 83.2917 30.9269 82.0417 29.6899 81.1953C28.466 80.3359 26.9556 79.9062 25.1587 79.9062C23.3618 79.9062 21.8449 80.3359 20.6079 81.1953C19.384 82.0417 18.453 83.2917 17.8149 84.9453C17.1899 86.5859 16.8774 88.6042 16.8774 91C16.8774 93.3958 17.1899 95.4206 17.8149 97.0742C18.453 98.7148 19.384 99.9648 20.6079 100.824C21.8449 101.671 23.3618 102.094 25.1587 102.094C26.9556 102.094 28.466 101.671 29.6899 100.824C30.9269 99.9648 31.8579 98.7148 32.4829 97.0742C33.1209 95.4206 33.4399 93.3958 33.4399 91ZM49.6899 71H63.2056L72.5024 93.6563H72.9712L82.2681 71H95.7837V111H85.1587V87.875H84.8462L75.9399 110.687H69.5337L60.6274 87.7187H60.3149V111H49.6899V71ZM99.8364 79.75V71H134.602V79.75H122.571V111H111.868V79.75H99.8364ZM162.786 84.2031C162.616 83.513 162.349 82.9076 161.985 82.3867C161.62 81.8529 161.165 81.4036 160.618 81.0391C160.084 80.6615 159.459 80.3815 158.743 80.1992C158.04 80.0039 157.265 79.9062 156.418 79.9062C154.596 79.9062 153.04 80.3424 151.75 81.2148C150.474 82.0872 149.498 83.3437 148.821 84.9844C148.157 86.625 147.825 88.6042 147.825 90.9219C147.825 93.2656 148.144 95.2708 148.782 96.9375C149.42 98.6042 150.37 99.8802 151.633 100.766C152.896 101.651 154.465 102.094 156.34 102.094C157.994 102.094 159.368 101.853 160.461 101.371C161.568 100.889 162.395 100.206 162.942 99.3203C163.489 98.4349 163.762 97.3932 163.762 96.1953L165.637 96.3906H156.497V88.6562H174.231V94.2031C174.231 97.849 173.456 100.967 171.907 103.559C170.37 106.137 168.248 108.116 165.54 109.496C162.844 110.863 159.752 111.547 156.262 111.547C152.369 111.547 148.951 110.72 146.008 109.066C143.066 107.413 140.767 105.056 139.114 101.996C137.473 98.9362 136.653 95.2969 136.653 91.0781C136.653 87.7708 137.154 84.8411 138.157 82.2891C139.172 79.737 140.579 77.582 142.375 75.8242C144.172 74.0534 146.249 72.7187 148.606 71.8203C150.963 70.9089 153.489 70.4531 156.184 70.4531C158.554 70.4531 160.754 70.7917 162.786 71.4688C164.83 72.1328 166.633 73.0833 168.196 74.3203C169.771 75.5443 171.041 76.9961 172.004 78.6758C172.968 80.3555 173.554 82.1979 173.762 84.2031H162.786Z" fill="#262626"/>
</svg>
